# Blender 4.4.1
# www.blender.org
mtllib Invader3.mtl
o Invader3
v -0.100000 0.200000 0.000000
v -0.100000 1.000000 0.000000
v 0.100000 0.200000 0.000000
v 0.100000 0.200000 -0.200000
v -0.100000 0.400000 0.000000
v 0.100000 1.000000 0.000000
v -0.100000 1.000000 -0.200000
v 0.100000 0.400000 0.000000
v -0.100000 0.000000 -0.200000
v -0.100000 0.200000 -0.200000
v -0.100000 0.000000 -0.400000
v -0.100000 0.200000 -0.400000
v 0.100000 0.000000 -0.200000
v 0.100000 1.000000 -0.200000
v 0.100000 0.000000 -0.400000
v 0.100000 0.200000 -0.400000
v 0.100000 1.000000 -0.800000
v -0.100000 0.400000 -0.400000
v -0.100000 1.000000 -0.800000
v -0.100000 0.400000 -0.600000
v 0.100000 0.400000 -0.400000
v 0.100000 0.400000 -0.600000
v -0.100000 0.000000 -0.600000
v -0.100000 0.200000 -0.600000
v -0.100000 0.000000 -0.800000
v -0.100000 0.200000 -0.800000
v 0.100000 0.000000 -0.600000
v 0.100000 0.200000 -0.600000
v 0.100000 0.000000 -0.800000
v 0.100000 0.200000 -0.800000
v -0.100000 0.400000 -0.200000
v -0.100000 0.600000 -0.200000
v 0.100000 1.000000 -0.400000
v -0.100000 0.600000 -0.400000
v 0.100000 0.400000 -0.200000
v 0.100000 0.600000 -0.200000
v 0.100000 0.600000 -0.400000
v -0.100000 0.800000 -0.200000
v -0.100000 0.800000 -0.400000
v 0.100000 0.800000 -0.400000
v 0.100000 0.800000 -0.200000
v 0.100000 0.600000 0.000000
v -0.100000 0.600000 0.000000
v 0.100000 0.800000 0.000000
v -0.100000 0.800000 0.000000
v -0.100000 0.600000 -0.600000
v 0.100000 0.600000 -0.600000
v -0.100000 0.800000 -0.600000
v 0.100000 0.800000 -0.600000
v -0.100000 0.600000 -0.800000
v 0.100000 0.600000 -0.800000
v -0.100000 0.800000 -0.800000
v 0.100000 0.800000 -0.800000
v 0.100000 1.200000 0.000000
v 0.100000 1.200000 -0.200000
v -0.100000 1.200000 -0.200000
v -0.100000 1.200000 0.000000
v -0.100000 1.000000 -0.400000
v 0.100000 1.200000 -0.400000
v -0.100000 1.200000 -0.400000
v 0.100000 1.000000 -0.600000
v -0.100000 1.000000 -0.600000
v 0.100000 1.200000 -0.600000
v -0.100000 1.200000 -0.600000
v 0.100000 1.400000 0.000000
v -0.100000 1.400000 0.000000
v -0.100000 1.400000 -0.200000
v 0.100000 1.400000 -0.200000
v 0.100000 1.400000 -0.400000
v -0.100000 1.400000 -0.400000
v 0.100000 1.600000 0.000000
v -0.100000 1.600000 0.000000
v -0.100000 1.600000 -0.200000
v 0.100000 1.600000 -0.200000
v 0.100000 0.200000 0.200000
v -0.100000 1.000000 0.200000
v -0.100000 0.000000 0.200000
v -0.100000 0.200000 0.200000
v -0.100000 0.000000 0.400000
v -0.100000 0.200000 0.400000
v 0.100000 0.000000 0.200000
v 0.100000 1.000000 0.200000
v 0.100000 0.000000 0.400000
v 0.100000 0.200000 0.400000
v 0.100000 1.000000 0.800000
v -0.100000 0.400000 0.400000
v -0.100000 1.000000 0.800000
v -0.100000 0.400000 0.600000
v 0.100000 0.400000 0.400000
v 0.100000 0.400000 0.600000
v -0.100000 0.000000 0.600000
v -0.100000 0.200000 0.600000
v -0.100000 0.000000 0.800000
v -0.100000 0.200000 0.800000
v 0.100000 0.000000 0.600000
v 0.100000 0.200000 0.600000
v 0.100000 0.000000 0.800000
v 0.100000 0.200000 0.800000
v -0.100000 0.400000 0.200000
v -0.100000 0.600000 0.200000
v 0.100000 1.000000 0.400000
v -0.100000 0.600000 0.400000
v 0.100000 0.400000 0.200000
v 0.100000 0.600000 0.200000
v 0.100000 0.600000 0.400000
v -0.100000 0.800000 0.200000
v -0.100000 0.800000 0.400000
v 0.100000 0.800000 0.400000
v 0.100000 0.800000 0.200000
v -0.100000 0.600000 0.600000
v 0.100000 0.600000 0.600000
v -0.100000 0.800000 0.600000
v 0.100000 0.800000 0.600000
v -0.100000 0.600000 0.800000
v 0.100000 0.600000 0.800000
v -0.100000 0.800000 0.800000
v 0.100000 0.800000 0.800000
v 0.100000 1.200000 0.200000
v -0.100000 1.200000 0.200000
v -0.100000 1.000000 0.400000
v 0.100000 1.200000 0.400000
v -0.100000 1.200000 0.400000
v 0.100000 1.000000 0.600000
v -0.100000 1.000000 0.600000
v 0.100000 1.200000 0.600000
v -0.100000 1.200000 0.600000
v -0.100000 1.400000 0.200000
v 0.100000 1.400000 0.200000
v 0.100000 1.400000 0.400000
v -0.100000 1.400000 0.400000
v -0.100000 1.600000 0.200000
v 0.100000 1.600000 0.200000
vn -0.0000 -0.0000 -1.0000
vn -0.0000 1.0000 -0.0000
vn 1.0000 -0.0000 -0.0000
vn -1.0000 -0.0000 -0.0000
vn -0.0000 -0.0000 1.0000
vn -0.0000 -1.0000 -0.0000
vt 0.625000 0.500000
vt 0.625000 0.250000
vt 0.875000 0.500000
vt 0.875000 0.750000
vt 0.625000 0.750000
vt 0.625000 0.000000
vt 0.625000 1.000000
vt 0.375000 0.000000
vt 0.375000 0.250000
vt 0.375000 0.500000
vt 0.375000 0.750000
vt 0.375000 1.000000
vt 0.125000 0.500000
vt 0.125000 0.750000
s 0
f 4/1/1 10/2/1 31/2/1 35/1/1
f 35/1/2 31/3/2 5/4/2 8/5/2
f 3/5/3 4/1/3 35/1/3 8/5/3
f 10/2/4 1/6/4 5/6/4 31/2/4
f 1/7/5 3/5/5 8/5/5 5/7/5
f 1/6/6 10/2/6 4/1/6 3/5/6
f 9/8/4 10/6/4 12/2/4 11/9/4
f 11/9/1 12/2/1 16/1/1 15/10/1
f 15/10/3 16/1/3 4/5/3 13/11/3
f 13/11/5 4/5/5 10/7/5 9/12/5
f 11/13/6 15/10/6 13/11/6 9/14/6
f 16/1/2 12/3/2 10/4/2 4/5/2
f 12/8/4 18/6/4 20/2/4 24/9/4
f 24/9/1 20/2/1 22/1/1 28/10/1
f 28/10/3 22/1/3 21/5/3 16/11/3
f 16/11/5 21/5/5 18/7/5 12/12/5
f 24/13/6 28/10/6 16/11/6 12/14/6
f 22/1/2 20/3/2 18/4/2 21/5/2
f 23/8/4 24/6/4 26/2/4 25/9/4
f 25/9/1 26/2/1 30/1/1 29/10/1
f 29/10/3 30/1/3 28/5/3 27/11/3
f 27/11/5 28/5/5 24/7/5 23/12/5
f 25/13/6 29/10/6 27/11/6 23/14/6
f 30/1/2 26/3/2 24/4/2 28/5/2
f 31/8/4 32/6/4 34/2/4 18/9/4
f 18/9/1 34/2/1 37/1/1 21/10/1
f 21/10/3 37/1/3 36/5/3 35/11/3
f 35/11/5 36/5/5 32/7/5 31/12/5
f 18/13/6 21/10/6 35/11/6 31/14/6
f 34/2/4 32/6/4 38/6/4 39/2/4
f 40/1/2 39/3/2 38/4/2 41/5/2
f 41/5/1 38/4/1 7/4/1 14/5/1
f 34/2/4 39/2/4 48/2/4 46/2/4
f 36/5/3 37/1/3 40/1/3 41/5/3
f 43/7/5 42/5/5 44/5/5 45/7/5
f 32/7/6 36/5/6 42/5/6 43/7/6
f 36/5/3 41/5/3 44/5/3 42/5/3
f 38/6/4 32/6/4 43/6/4 45/6/4
f 47/1/6 46/2/6 50/2/6 51/1/6
f 39/3/5 40/1/5 33/1/5 58/3/5
f 37/1/6 34/2/6 46/2/6 47/1/6
f 40/1/3 37/1/3 47/1/3 49/1/3
f 51/1/1 50/2/1 52/2/1 53/1/1
f 49/1/3 47/1/3 51/1/3 53/1/3
f 53/1/1 52/2/1 19/2/1 17/1/1
f 46/2/4 48/2/4 52/2/4 50/2/4
f 58/3/2 33/1/2 61/1/2 62/3/2
f 62/3/2 61/1/2 17/1/2 19/3/2
f 49/1/3 53/1/3 17/1/3 61/1/3
f 40/1/3 49/1/3 61/1/3 33/1/3
f 52/2/4 48/2/4 62/2/4 19/2/4
f 48/2/4 39/2/4 58/2/4 62/2/4
f 7/6/4 2/6/4 57/6/4 56/6/4
f 38/6/4 45/6/4 2/6/4 7/6/4
f 44/5/3 41/5/3 14/5/3 6/5/3
f 45/7/5 44/5/5 6/5/5 2/7/5
f 54/5/3 55/5/3 68/5/3 65/5/3
f 14/5/6 7/4/6 58/4/6 33/5/6
f 6/5/3 14/5/3 55/5/3 54/5/3
f 2/7/5 6/5/5 54/5/5 57/7/5
f 59/5/3 33/5/3 61/5/3 63/5/3
f 7/6/4 56/6/4 60/6/4 58/6/4
f 59/5/1 60/4/1 70/4/1 69/5/1
f 55/5/3 14/5/3 33/5/3 59/5/3
f 61/5/1 62/4/1 64/4/1 63/5/1
f 60/4/2 59/5/2 63/5/2 64/4/2
f 58/6/4 60/6/4 64/6/4 62/6/4
f 66/7/5 65/5/5 71/5/5 72/7/5
f 67/4/2 68/5/2 69/5/2 70/4/2
f 60/6/4 56/6/4 67/6/4 70/6/4
f 57/7/5 54/5/5 65/5/5 66/7/5
f 55/5/3 59/5/3 69/5/3 68/5/3
f 56/6/4 57/6/4 66/6/4 67/6/4
f 74/5/2 73/4/2 72/4/2 71/5/2
f 68/5/1 67/4/1 73/4/1 74/5/1
f 67/6/4 66/6/4 72/6/4 73/6/4
f 65/5/3 68/5/3 74/5/3 71/5/3
f 75/1/5 103/1/5 99/2/5 78/2/5
f 103/1/2 8/5/2 5/4/2 99/3/2
f 3/5/3 8/5/3 103/1/3 75/1/3
f 78/2/4 99/2/4 5/6/4 1/6/4
f 1/6/6 3/5/6 75/1/6 78/2/6
f 77/8/4 79/9/4 80/2/4 78/6/4
f 79/9/5 83/10/5 84/1/5 80/2/5
f 83/10/3 81/11/3 75/5/3 84/1/3
f 81/11/1 77/12/1 78/7/1 75/5/1
f 79/13/6 77/14/6 81/11/6 83/10/6
f 84/1/2 75/5/2 78/4/2 80/3/2
f 80/8/4 92/9/4 88/2/4 86/6/4
f 92/9/5 96/10/5 90/1/5 88/2/5
f 96/10/3 84/11/3 89/5/3 90/1/3
f 84/11/1 80/12/1 86/7/1 89/5/1
f 92/13/6 80/14/6 84/11/6 96/10/6
f 90/1/2 89/5/2 86/4/2 88/3/2
f 91/8/4 93/9/4 94/2/4 92/6/4
f 93/9/5 97/10/5 98/1/5 94/2/5
f 97/10/3 95/11/3 96/5/3 98/1/3
f 95/11/1 91/12/1 92/7/1 96/5/1
f 93/13/6 91/14/6 95/11/6 97/10/6
f 98/1/2 96/5/2 92/4/2 94/3/2
f 99/8/4 86/9/4 102/2/4 100/6/4
f 86/9/5 89/10/5 105/1/5 102/2/5
f 89/10/3 103/11/3 104/5/3 105/1/3
f 103/11/1 99/12/1 100/7/1 104/5/1
f 86/13/6 99/14/6 103/11/6 89/10/6
f 102/2/4 107/2/4 106/6/4 100/6/4
f 108/1/2 109/5/2 106/4/2 107/3/2
f 109/5/5 82/5/5 76/4/5 106/4/5
f 102/2/4 110/2/4 112/2/4 107/2/4
f 104/5/3 109/5/3 108/1/3 105/1/3
f 100/7/6 43/7/6 42/5/6 104/5/6
f 104/5/3 42/5/3 44/5/3 109/5/3
f 106/6/4 45/6/4 43/6/4 100/6/4
f 111/1/6 115/1/6 114/2/6 110/2/6
f 107/3/1 120/3/1 101/1/1 108/1/1
f 105/1/6 111/1/6 110/2/6 102/2/6
f 108/1/3 113/1/3 111/1/3 105/1/3
f 115/1/5 117/1/5 116/2/5 114/2/5
f 113/1/3 117/1/3 115/1/3 111/1/3
f 117/1/5 85/1/5 87/2/5 116/2/5
f 110/2/4 114/2/4 116/2/4 112/2/4
f 120/3/2 124/3/2 123/1/2 101/1/2
f 124/3/2 87/3/2 85/1/2 123/1/2
f 113/1/3 123/1/3 85/1/3 117/1/3
f 108/1/3 101/1/3 123/1/3 113/1/3
f 116/2/4 87/2/4 124/2/4 112/2/4
f 112/2/4 124/2/4 120/2/4 107/2/4
f 76/6/4 119/6/4 57/6/4 2/6/4
f 106/6/4 76/6/4 2/6/4 45/6/4
f 44/5/3 6/5/3 82/5/3 109/5/3
f 54/5/3 65/5/3 128/5/3 118/5/3
f 82/5/6 101/5/6 120/4/6 76/4/6
f 6/5/3 54/5/3 118/5/3 82/5/3
f 121/5/3 125/5/3 123/5/3 101/5/3
f 76/6/4 120/6/4 122/6/4 119/6/4
f 121/5/5 129/5/5 130/4/5 122/4/5
f 118/5/3 121/5/3 101/5/3 82/5/3
f 123/5/5 125/5/5 126/4/5 124/4/5
f 122/4/2 126/4/2 125/5/2 121/5/2
f 120/6/4 124/6/4 126/6/4 122/6/4
f 127/4/2 130/4/2 129/5/2 128/5/2
f 122/6/4 130/6/4 127/6/4 119/6/4
f 118/5/3 128/5/3 129/5/3 121/5/3
f 119/6/4 127/6/4 66/6/4 57/6/4
f 132/5/2 71/5/2 72/4/2 131/4/2
f 128/5/5 132/5/5 131/4/5 127/4/5
f 127/6/4 131/6/4 72/6/4 66/6/4
f 65/5/3 71/5/3 132/5/3 128/5/3
