# Blender 4.4.1
# www.blender.org
mtllib Invader1.mtl
o Cube
v -1.000000 2.000000 11.000000
v -1.000000 4.000000 11.000000
v -1.000000 2.000000 9.000000
v -1.000000 4.000000 9.000000
v 1.000000 2.000000 11.000000
v 1.000000 4.000000 11.000000
v 1.000000 2.000000 9.000000
v 1.000000 4.000000 9.000000
v -1.000000 6.000000 11.000000
v -1.000000 6.000000 9.000000
v 1.000000 6.000000 9.000000
v 1.000000 6.000000 11.000000
v -1.000000 8.000000 11.000000
v -1.000000 8.000000 9.000000
v 1.000000 8.000000 9.000000
v 1.000000 8.000000 11.000000
v -1.000000 6.000000 7.000000
v 1.000000 6.000000 7.000000
v -1.000000 8.000000 7.000000
v 1.000000 8.000000 7.000000
v -1.000000 10.000000 9.000000
v 1.000000 10.000000 9.000000
v -1.000000 10.000000 7.000000
v 1.000000 10.000000 7.000000
v -1.000000 6.000000 5.000000
v 1.000000 6.000000 5.000000
v -1.000000 8.000000 5.000000
v 1.000000 8.000000 5.000000
v -1.000000 10.000000 5.000000
v 1.000000 10.000000 5.000000
v -1.000000 12.000000 7.000000
v -1.000000 12.000000 5.000000
v 1.000000 12.000000 7.000000
v 1.000000 12.000000 5.000000
v -1.000000 10.000000 3.000000
v 1.000000 10.000000 3.000000
v -1.000000 12.000000 3.000000
v 1.000000 12.000000 3.000000
v -1.000000 14.000000 5.000000
v 1.000000 14.000000 5.000000
v -1.000000 14.000000 3.000000
v 1.000000 14.000000 3.000000
v -1.000000 16.000000 5.000000
v 1.000000 16.000000 5.000000
v 1.000000 6.000000 3.000000
v -1.000000 6.000000 3.000000
v -1.000000 14.000000 7.000000
v 1.000000 14.000000 7.000000
v -1.000000 16.000000 7.000000
v 1.000000 16.000000 7.000000
v -1.000000 4.000000 7.000000
v 1.000000 4.000000 7.000000
v -1.000000 4.000000 5.000000
v 1.000000 4.000000 5.000000
v -1.000000 2.000000 7.000000
v 1.000000 2.000000 7.000000
v -1.000000 2.000000 5.000000
v 1.000000 2.000000 5.000000
v -1.000000 4.000000 5.000000
v 1.000000 4.000000 5.000000
v -1.000000 0.000000 5.000000
v 1.000000 0.000000 5.000000
v -1.000000 2.000000 3.000000
v 1.000000 2.000000 3.000000
v -1.000000 0.000000 3.000000
v 1.000000 0.000000 3.000000
v -1.000000 2.000000 1.000000
v 1.000000 2.000000 1.000000
v -1.000000 0.000000 1.000000
v 1.000000 0.000000 1.000000
v -1.000000 4.000000 3.000000
v 1.000000 4.000000 3.000000
v -1.000000 10.000000 1.000000
v 1.000000 10.000000 1.000000
v -1.000000 12.000000 1.000000
v 1.000000 12.000000 1.000000
v 1.000000 6.000000 1.000000
v -1.000000 6.000000 1.000000
v -1.000000 4.000000 1.000000
v 1.000000 4.000000 1.000000
v -1.000000 8.000000 3.000000
v 1.000000 8.000000 3.000000
v -1.000000 8.000000 1.000000
v 1.000000 8.000000 1.000000
v -1.000000 2.000000 -11.000000
v -1.000000 4.000000 -11.000000
v -1.000000 2.000000 -9.000000
v -1.000000 4.000000 -9.000000
v 1.000000 2.000000 -11.000000
v 1.000000 4.000000 -11.000000
v 1.000000 2.000000 -9.000000
v 1.000000 4.000000 -9.000000
v -1.000000 6.000000 -11.000000
v -1.000000 6.000000 -9.000000
v 1.000000 6.000000 -9.000000
v 1.000000 6.000000 -11.000000
v -1.000000 8.000000 -11.000000
v -1.000000 8.000000 -9.000000
v 1.000000 8.000000 -9.000000
v 1.000000 8.000000 -11.000000
v -1.000000 6.000000 -7.000000
v 1.000000 6.000000 -7.000000
v -1.000000 8.000000 -7.000000
v 1.000000 8.000000 -7.000000
v -1.000000 10.000000 -9.000000
v 1.000000 10.000000 -9.000000
v -1.000000 10.000000 -7.000000
v 1.000000 10.000000 -7.000000
v -1.000000 6.000000 -5.000000
v 1.000000 6.000000 -5.000000
v -1.000000 8.000000 -5.000000
v 1.000000 8.000000 -5.000000
v -1.000000 10.000000 -5.000000
v 1.000000 10.000000 -5.000000
v -1.000000 12.000000 -7.000000
v -1.000000 12.000000 -5.000000
v 1.000000 12.000000 -7.000000
v 1.000000 12.000000 -5.000000
v -1.000000 10.000000 -3.000000
v 1.000000 10.000000 -3.000000
v -1.000000 12.000000 -3.000000
v 1.000000 12.000000 -3.000000
v -1.000000 14.000000 -5.000000
v 1.000000 14.000000 -5.000000
v -1.000000 14.000000 -3.000000
v 1.000000 14.000000 -3.000000
v -1.000000 16.000000 -5.000000
v 1.000000 16.000000 -5.000000
v 1.000000 6.000000 -3.000000
v -1.000000 6.000000 -3.000000
v -1.000000 14.000000 -7.000000
v 1.000000 14.000000 -7.000000
v -1.000000 16.000000 -7.000000
v 1.000000 16.000000 -7.000000
v -1.000000 4.000000 -7.000000
v 1.000000 4.000000 -7.000000
v -1.000000 4.000000 -5.000000
v 1.000000 4.000000 -5.000000
v -1.000000 2.000000 -7.000000
v 1.000000 2.000000 -7.000000
v -1.000000 2.000000 -5.000000
v 1.000000 2.000000 -5.000000
v -1.000000 4.000000 -5.000000
v 1.000000 4.000000 -5.000000
v -1.000000 0.000000 -5.000000
v 1.000000 0.000000 -5.000000
v -1.000000 2.000000 -3.000000
v 1.000000 2.000000 -3.000000
v -1.000000 0.000000 -3.000000
v 1.000000 0.000000 -3.000000
v -1.000000 2.000000 -1.000000
v 1.000000 2.000000 -1.000000
v -1.000000 0.000000 -1.000000
v 1.000000 0.000000 -1.000000
v -1.000000 4.000000 -3.000000
v 1.000000 4.000000 -3.000000
v -1.000000 10.000000 -1.000000
v 1.000000 10.000000 -1.000000
v -1.000000 12.000000 -1.000000
v 1.000000 12.000000 -1.000000
v 1.000000 6.000000 -1.000000
v -1.000000 6.000000 -1.000000
v -1.000000 4.000000 -1.000000
v 1.000000 4.000000 -1.000000
v -1.000000 8.000000 -3.000000
v 1.000000 8.000000 -3.000000
v -1.000000 8.000000 -1.000000
v 1.000000 8.000000 -1.000000
vn -1.0000 -0.0000 -0.0000
vn -0.0000 -0.0000 -1.0000
vn 1.0000 -0.0000 -0.0000
vn -0.0000 -0.0000 1.0000
vn -0.0000 -1.0000 -0.0000
vn -0.0000 1.0000 -0.0000
vt 0.375000 0.000000
vt 0.625000 0.000000
vt 0.625000 0.250000
vt 0.375000 0.250000
vt 0.625000 0.500000
vt 0.375000 0.500000
vt 0.625000 0.750000
vt 0.375000 0.750000
vt 0.625000 1.000000
vt 0.375000 1.000000
vt 0.125000 0.500000
vt 0.125000 0.750000
vt 0.875000 0.500000
vt 0.875000 0.750000
vt 0.000000 0.000000
s 0
f 1/1/1 2/2/1 4/3/1 3/4/1
f 3/4/2 4/3/2 8/5/2 7/6/2
f 7/6/3 8/5/3 6/7/3 5/8/3
f 5/8/4 6/7/4 2/9/4 1/10/4
f 3/11/5 7/6/5 5/8/5 1/12/5
f 6/7/3 8/5/3 11/5/3 12/7/3
f 10/3/1 9/2/1 13/2/1 14/3/1
f 4/3/1 2/2/1 9/2/1 10/3/1
f 2/9/4 6/7/4 12/7/4 9/9/4
f 8/5/2 4/3/2 10/3/2 11/5/2
f 15/5/6 14/13/6 13/14/6 16/7/6
f 9/9/4 12/7/4 16/7/4 13/9/4
f 14/13/4 15/5/4 22/5/4 21/13/4
f 12/7/3 11/5/3 15/5/3 16/7/3
f 17/3/1 19/3/1 27/3/1 25/3/1
f 11/5/5 10/3/5 17/3/5 18/5/5
f 15/5/3 11/5/3 18/5/3 20/5/3
f 10/3/1 14/3/1 19/3/1 17/3/1
f 21/13/6 22/5/6 24/5/6 23/13/6
f 15/5/3 20/5/3 24/5/3 22/5/3
f 19/3/1 14/3/1 21/3/1 23/3/1
f 19/3/1 23/3/1 29/3/1 27/3/1
f 25/3/1 27/3/1 81/3/1 46/3/1
f 28/5/2 27/3/2 29/3/2 30/5/2
f 18/5/4 17/3/4 51/3/4 52/5/4
f 24/5/3 30/5/3 34/5/3 33/5/3
f 24/5/3 20/5/3 28/5/3 30/5/3
f 20/5/3 18/5/3 26/5/3 28/5/3
f 31/13/6 33/5/6 34/5/6 32/13/6
f 23/13/4 24/5/4 33/5/4 31/13/4
f 29/3/1 32/3/1 37/3/1 35/3/1
f 29/3/1 23/3/1 31/3/1 32/3/1
f 46/3/1 81/3/1 83/3/1 78/3/1
f 30/5/5 29/3/5 35/3/5 36/5/5
f 34/5/3 30/5/3 36/5/3 38/5/3
f 74/5/3 36/5/3 82/5/3 84/5/3
f 26/5/4 25/3/4 59/3/4 60/5/4
f 37/3/1 32/3/1 39/3/1 41/3/1
f 34/5/3 38/5/3 42/5/3 40/5/3
f 32/13/4 34/5/4 40/5/4 39/13/4
f 28/5/3 26/5/3 45/5/3 82/5/3
f 39/13/5 40/5/5 48/5/5 47/13/5
f 35/3/1 37/3/1 75/3/1 73/3/1
f 27/3/6 28/5/6 82/5/6 81/3/6
f 47/13/4 48/5/4 50/5/4 49/13/4
f 40/5/3 44/5/3 50/5/3 48/5/3
f 43/3/1 39/3/1 47/3/1 49/3/1
f 44/5/6 43/13/6 49/13/6 50/5/6
f 39/15/2 43/15/2 44/15/2 40/15/2
f 51/3/1 53/3/1 57/3/1 55/3/1
f 25/3/2 26/5/2 54/5/2 53/3/2
f 26/5/3 18/5/3 52/5/3 54/5/3
f 17/3/1 25/3/1 53/3/1 51/3/1
f 45/5/3 26/5/3 60/5/3 72/5/3
f 52/5/4 51/3/4 55/3/4 56/5/4
f 54/5/3 52/5/3 56/5/3 58/5/3
f 53/3/2 54/5/2 58/5/2 57/3/2
f 62/5/5 61/3/5 65/3/5 66/5/5
f 60/5/5 59/3/5 71/3/5 72/5/5
f 25/3/1 46/3/1 71/3/1 59/3/1
f 64/5/3 66/5/3 70/5/3 68/5/3
f 61/3/1 57/3/1 63/3/1 65/3/1
f 57/3/6 58/5/6 64/5/6 63/3/6
f 58/5/3 62/5/3 66/5/3 64/5/3
f 67/3/2 68/5/2 70/5/2 69/3/2
f 63/3/6 64/5/6 68/5/6 67/3/6
f 65/3/1 63/3/1 67/3/1 69/3/1
f 66/5/5 65/3/5 69/3/5 70/5/5
f 57/15/4 61/15/4 62/15/4 58/15/4
f 82/5/3 45/5/3 77/5/3 84/5/3
f 45/5/3 72/5/3 80/5/3 77/5/3
f 72/5/5 71/3/5 79/3/5 80/5/5
f 38/5/3 36/5/3 74/5/3 76/5/3
f 76/5/6 160/5/6 159/3/6 75/3/6
f 71/3/1 46/3/1 78/3/1 79/3/1
f 76/5/3 74/5/3 158/5/3 160/5/3
f 36/5/4 35/3/4 81/3/4 82/5/4
f 35/3/1 73/3/1 83/3/1 81/3/1
f 76/5/6 75/3/6 37/3/6 38/5/6
f 85/1/1 87/4/1 88/3/1 86/2/1
f 87/4/4 91/6/4 92/5/4 88/3/4
f 91/6/3 89/8/3 90/7/3 92/5/3
f 89/8/2 85/10/2 86/9/2 90/7/2
f 87/11/5 85/12/5 89/8/5 91/6/5
f 90/7/3 96/7/3 95/5/3 92/5/3
f 94/3/1 98/3/1 97/2/1 93/2/1
f 88/3/1 94/3/1 93/2/1 86/2/1
f 86/9/2 93/9/2 96/7/2 90/7/2
f 92/5/4 95/5/4 94/3/4 88/3/4
f 99/5/6 100/7/6 97/14/6 98/13/6
f 93/9/2 97/9/2 100/7/2 96/7/2
f 98/13/2 105/13/2 106/5/2 99/5/2
f 96/7/3 100/7/3 99/5/3 95/5/3
f 101/3/1 109/3/1 111/3/1 103/3/1
f 95/5/5 102/5/5 101/3/5 94/3/5
f 99/5/3 104/5/3 102/5/3 95/5/3
f 94/3/1 101/3/1 103/3/1 98/3/1
f 105/13/6 107/13/6 108/5/6 106/5/6
f 99/5/3 106/5/3 108/5/3 104/5/3
f 103/3/1 107/3/1 105/3/1 98/3/1
f 103/3/1 111/3/1 113/3/1 107/3/1
f 109/3/1 130/3/1 165/3/1 111/3/1
f 112/5/4 114/5/4 113/3/4 111/3/4
f 102/5/2 136/5/2 135/3/2 101/3/2
f 108/5/3 117/5/3 118/5/3 114/5/3
f 108/5/3 114/5/3 112/5/3 104/5/3
f 104/5/3 112/5/3 110/5/3 102/5/3
f 115/13/6 116/13/6 118/5/6 117/5/6
f 107/13/2 115/13/2 117/5/2 108/5/2
f 113/3/1 119/3/1 121/3/1 116/3/1
f 113/3/1 116/3/1 115/3/1 107/3/1
f 130/3/1 162/3/1 167/3/1 165/3/1
f 114/5/5 120/5/5 119/3/5 113/3/5
f 118/5/3 122/5/3 120/5/3 114/5/3
f 158/5/3 168/5/3 166/5/3 120/5/3
f 110/5/2 144/5/2 143/3/2 109/3/2
f 121/3/1 125/3/1 123/3/1 116/3/1
f 118/5/3 124/5/3 126/5/3 122/5/3
f 116/13/2 123/13/2 124/5/2 118/5/2
f 112/5/3 166/5/3 129/5/3 110/5/3
f 123/13/5 131/13/5 132/5/5 124/5/5
f 119/3/1 157/3/1 159/3/1 121/3/1
f 111/3/6 165/3/6 166/5/6 112/5/6
f 131/13/2 133/13/2 134/5/2 132/5/2
f 124/5/3 132/5/3 134/5/3 128/5/3
f 127/3/1 133/3/1 131/3/1 123/3/1
f 128/5/6 134/5/6 133/13/6 127/13/6
f 123/15/6 125/15/6 126/15/6 124/15/6
f 135/3/1 139/3/1 141/3/1 137/3/1
f 109/3/4 137/3/4 138/5/4 110/5/4
f 110/5/3 138/5/3 136/5/3 102/5/3
f 101/3/1 135/3/1 137/3/1 109/3/1
f 129/5/3 156/5/3 144/5/3 110/5/3
f 136/5/2 140/5/2 139/3/2 135/3/2
f 138/5/3 142/5/3 140/5/3 136/5/3
f 137/3/4 141/3/4 142/5/4 138/5/4
f 146/5/5 150/5/5 149/3/5 145/3/5
f 144/5/5 156/5/5 155/3/5 143/3/5
f 109/3/1 143/3/1 155/3/1 130/3/1
f 148/5/3 152/5/3 154/5/3 150/5/3
f 145/3/1 149/3/1 147/3/1 141/3/1
f 141/3/6 147/3/6 148/5/6 142/5/6
f 142/5/3 148/5/3 150/5/3 146/5/3
f 151/3/4 153/3/4 154/5/4 152/5/4
f 147/3/6 151/3/6 152/5/6 148/5/6
f 149/3/1 153/3/1 151/3/1 147/3/1
f 150/5/5 154/5/5 153/3/5 149/3/5
f 141/15/5 139/15/5 140/15/5 142/15/5
f 166/5/3 168/5/3 161/5/3 129/5/3
f 129/5/3 161/5/3 164/5/3 156/5/3
f 156/5/5 164/5/5 163/3/5 155/3/5
f 122/5/3 160/5/3 158/5/3 120/5/3
f 155/3/1 163/3/1 162/3/1 130/3/1
f 120/5/2 166/5/2 165/3/2 119/3/2
f 119/3/1 165/3/1 167/3/1 157/3/1
f 126/5/4 125/3/4 121/3/4 122/5/4
f 74/5/3 84/5/3 168/5/3 158/5/3
f 77/5/3 161/5/3 168/5/3 84/5/3
f 77/5/3 80/5/3 164/5/3 161/5/3
f 80/5/5 79/3/5 163/3/5 164/5/5
f 78/3/1 162/3/1 163/3/1 79/3/1
f 78/3/1 83/3/1 167/3/1 162/3/1
f 83/3/1 73/3/1 157/3/1 167/3/1
f 75/3/1 159/3/1 157/3/1 73/3/1
f 41/15/6 39/15/6 40/15/6 42/15/6
f 127/15/4 123/15/4 124/15/4 128/15/4
f 145/15/2 141/15/2 142/15/2 146/15/2
f 55/15/5 57/15/5 58/15/5 56/15/5
f 41/3/2 42/5/2 38/5/2 37/3/2
f 160/5/6 122/5/6 121/3/6 159/3/6
