# Blender 4.4.1
# www.blender.org
mtllib Player.mtl
o Player
v 0.100000 0.200000 -0.582609
v 0.300000 0.200000 -0.582609
v 0.300000 0.200000 -0.382609
v 0.100000 -0.000000 -0.582609
v 0.100000 -0.000000 -0.382609
v 0.300000 0.000000 -0.582609
v 0.300000 0.000000 -0.382609
v 0.100000 0.200000 -0.182609
v 0.300000 0.200000 -0.182609
v 0.300000 0.000000 -0.182609
v 0.100000 0.200000 0.017391
v 0.300000 0.200000 0.017391
v 0.300000 0.000000 0.017391
v 0.100000 -0.000000 0.017391
v 0.100000 0.200000 0.217391
v 0.300000 0.200000 0.217391
v 0.300000 0.000000 0.217391
v 0.100000 0.200000 0.417391
v 0.300000 0.200000 0.417391
v 0.300000 0.000000 0.417391
v 0.100000 -0.000000 0.417391
v 0.300000 0.200000 0.617391
v 0.300000 0.000000 0.617391
v 0.100000 -0.000000 0.617391
v 0.100000 0.200000 0.817392
v 0.300000 0.200000 0.817392
v 0.300000 0.000000 0.817392
v 0.100000 -0.000000 0.817392
v 0.500000 0.200000 -0.382609
v 0.500000 0.200000 -0.582609
v 0.500000 0.000000 -0.582609
v 0.500000 0.000000 -0.382609
v 0.500000 0.200000 -0.182609
v 0.500000 0.000000 -0.182609
v 0.500000 0.200000 0.017391
v 0.500000 0.000000 0.017391
v 0.500000 0.200000 0.217391
v 0.500000 0.000000 0.217391
v 0.500000 0.200000 0.417391
v 0.500000 0.000000 0.417391
v 0.700000 0.200000 -0.382609
v 0.700000 0.200000 -0.582609
v 0.700000 0.000000 -0.582609
v 0.700000 0.000000 -0.382609
v 0.700000 0.200000 -0.182609
v 0.700000 0.000000 -0.182609
v 0.700000 0.200000 0.017391
v 0.700000 0.000000 0.017391
v 0.700000 0.200000 0.217391
v 0.700000 0.000000 0.217391
v 0.700000 0.200000 0.417391
v 0.700000 0.000000 0.417391
v 0.900000 0.200000 -0.382609
v 0.900000 0.200000 -0.582609
v 0.900000 0.000000 -0.582609
v 0.900000 0.000000 -0.382609
v 0.900000 0.200000 -0.182609
v 0.900000 0.000000 -0.182609
v 0.900000 0.200000 0.017391
v 0.900000 0.000000 0.017391
v 0.900000 0.200000 0.217391
v 0.900000 0.000000 0.217391
v 0.900000 0.200000 0.417391
v 0.900000 0.000000 0.417391
v 1.100000 0.200000 -0.382609
v 1.100000 0.200000 -0.582609
v 1.100000 0.000000 -0.582609
v 1.100000 0.000000 -0.382609
v 1.100000 0.200000 -0.182609
v 1.100000 0.000000 -0.182609
v 1.100000 0.200000 0.017391
v 1.100000 0.000000 0.017391
v 1.100000 0.200000 0.217391
v 1.100000 0.000000 0.217391
v 1.100000 0.200000 0.417391
v 1.100000 0.000000 0.417391
v 1.300000 0.200000 -0.382609
v 1.300000 0.200000 -0.582609
v 1.300000 0.000000 -0.582609
v 1.300000 0.000000 -0.382609
v 1.300000 0.200000 -0.182609
v 1.300000 0.000000 -0.182609
v 1.300000 0.200000 0.017391
v 1.300000 0.000000 0.017391
v 1.300000 0.200000 0.217391
v 1.300000 0.000000 0.217391
v -0.100000 0.200000 0.417391
v 0.100000 -0.000000 0.217391
v -0.100000 0.200000 0.017391
v -0.100000 -0.000000 -0.182609
v 0.100000 -0.000000 -0.182609
v 0.100000 0.200000 -0.382609
v -0.100000 -0.000000 -0.382609
v -0.100000 0.200000 -0.582609
v -0.300000 0.200000 -0.582609
v -0.300000 0.200000 -0.382609
v -0.100000 -0.000000 -0.582609
v -0.300000 -0.000000 -0.582609
v -0.300000 -0.000000 -0.382609
v -0.100000 0.200000 -0.182609
v -0.300000 0.200000 -0.182609
v -0.300000 -0.000000 -0.182609
v -0.300000 0.200000 0.017391
v -0.300000 -0.000000 0.017391
v -0.100000 -0.000000 0.017391
v -0.100000 0.200000 0.217391
v -0.300000 0.200000 0.217391
v -0.300000 -0.000000 0.217391
v -0.100000 -0.000000 0.217391
v -0.300000 0.200000 0.417391
v -0.300000 -0.000000 0.417391
v -0.100000 -0.000000 0.417391
v -0.300000 0.200000 0.617391
v -0.300000 -0.000000 0.617391
v -0.100000 -0.000000 0.617391
v -0.100000 0.200000 0.817392
v -0.300000 0.200000 0.817392
v -0.300000 -0.000000 0.817392
v -0.500000 0.200000 -0.382609
v -0.500000 0.200000 -0.582609
v -0.500000 -0.000000 -0.582609
v -0.500000 -0.000000 -0.382609
v -0.500000 0.200000 -0.182609
v -0.500000 -0.000000 -0.182609
v -0.500000 0.200000 0.017391
v -0.500000 -0.000000 0.017391
v -0.500000 0.200000 0.217391
v -0.500000 -0.000000 0.217391
v -0.500000 0.200000 0.417391
v -0.500000 -0.000000 0.417391
v -0.700000 0.200000 -0.382609
v -0.700000 0.200000 -0.582609
v -0.700000 -0.000000 -0.582609
v -0.700000 -0.000000 -0.382609
v -0.700000 0.200000 -0.182609
v -0.700000 -0.000000 -0.182609
v -0.700000 0.200000 0.017391
v -0.700000 -0.000000 0.017391
v -0.700000 0.200000 0.217391
v -0.700000 -0.000000 0.217391
v -0.700000 0.200000 0.417391
v -0.700000 -0.000000 0.417391
v -0.900000 0.200000 -0.382609
v -0.900000 0.200000 -0.582609
v -0.900000 -0.000000 -0.582609
v -0.900000 -0.000000 -0.382609
v -0.900000 0.200000 -0.182609
v -0.900000 -0.000000 -0.182609
v -0.900000 0.200000 0.017391
v -0.900000 -0.000000 0.017391
v -0.900000 0.200000 0.217391
v -0.900000 -0.000000 0.217391
v -0.900000 0.200000 0.417391
v -0.900000 -0.000000 0.417391
v -1.100000 0.200000 -0.382609
v -1.100000 0.200000 -0.582609
v -1.100000 -0.000000 -0.582609
v -1.100000 -0.000000 -0.382609
v -1.100000 0.200000 -0.182609
v -1.100000 -0.000000 -0.182609
v -1.100000 0.200000 0.017391
v -1.100000 -0.000000 0.017391
v -1.100000 0.200000 0.217391
v -1.100000 -0.000000 0.217391
v -1.100000 0.200000 0.417391
v -1.100000 -0.000000 0.417391
v -1.300000 0.200000 -0.382609
v -1.300000 0.200000 -0.582609
v -1.300000 -0.000000 -0.582609
v -1.300000 -0.000000 -0.382609
v -1.300000 0.200000 -0.182609
v -1.300000 -0.000000 -0.182609
v -1.300000 0.200000 0.017391
v -1.300000 -0.000000 0.017391
v -1.300000 0.200000 0.217391
v -1.300000 -0.000000 0.217391
v -0.100000 0.200000 -0.382609
v 0.100000 0.200000 0.617391
v -0.100000 0.200000 0.617391
v -0.100000 -0.000000 0.817392
v -0.100000 0.200000 1.017392
v 0.100000 0.200000 1.017392
v 0.100000 -0.000000 1.017392
v -0.100000 -0.000000 1.017392
vn -0.0000 1.0000 -0.0000
vn -0.0000 -1.0000 -0.0000
vn -0.0000 -0.0000 -1.0000
vn 1.0000 -0.0000 -0.0000
vn -0.0000 -0.0000 1.0000
vn -1.0000 -0.0000 -0.0000
vt 0.375000 0.000000
vt 0.625000 0.000000
vt 0.625000 0.250000
vt 0.375000 0.250000
vt 0.375000 0.500000
vt 0.625000 0.500000
vt 0.625000 0.750000
vt 0.375000 0.750000
vt 0.125000 0.500000
vt 0.125000 0.750000
vt 0.875000 0.500000
vt 0.875000 0.750000
vt 0.625000 1.000000
vt 0.375000 1.000000
s 0
f 1/1/1 92/2/1 3/3/1 2/4/1
f 16/3/1 19/3/1 39/3/1 37/3/1
f 6/5/2 7/6/2 5/7/2 4/8/2
f 2/9/3 6/5/3 4/8/3 1/10/3
f 3/3/1 92/2/1 8/2/1 9/3/1
f 12/3/1 16/3/1 37/3/1 35/3/1
f 6/5/3 2/9/3 30/9/3 31/5/3
f 5/7/2 7/6/2 10/6/2 91/7/2
f 14/7/2 13/6/2 17/6/2 88/7/2
f 91/7/2 10/6/2 13/6/2 14/7/2
f 9/3/1 8/2/1 11/2/1 12/3/1
f 12/3/1 11/2/1 15/2/1 16/3/1
f 9/3/1 12/3/1 35/3/1 33/3/1
f 21/7/2 20/6/2 23/6/2 24/7/2
f 3/3/1 9/3/1 33/3/1 29/3/1
f 88/7/2 17/6/2 20/6/2 21/7/2
f 16/3/1 15/2/1 18/2/1 19/3/1
f 24/7/2 23/6/2 27/6/2 28/7/2
f 19/3/1 18/2/1 178/2/1 22/3/1
f 20/6/4 19/3/4 22/3/4 23/6/4
f 27/6/5 26/11/5 25/12/5 28/7/5
f 22/3/1 178/2/1 25/2/1 26/3/1
f 23/6/4 22/3/4 26/3/4 27/6/4
f 37/3/1 39/3/1 51/3/1 49/3/1
f 30/4/1 29/3/1 41/3/1 42/4/1
f 32/6/2 31/5/2 43/5/2 44/6/2
f 39/3/5 40/6/5 52/6/5 51/3/5
f 34/6/2 32/6/2 44/6/2 46/6/2
f 13/6/2 10/6/2 34/6/2 36/6/2
f 17/6/2 13/6/2 36/6/2 38/6/2
f 10/6/2 7/6/2 32/6/2 34/6/2
f 20/6/2 17/6/2 38/6/2 40/6/2
f 7/6/2 6/5/2 31/5/2 32/6/2
f 19/3/5 20/6/5 40/6/5 39/3/5
f 2/4/1 3/3/1 29/3/1 30/4/1
f 49/3/1 51/3/1 63/3/1 61/3/1
f 42/4/1 41/3/1 53/3/1 54/4/1
f 44/6/2 43/5/2 55/5/2 56/6/2
f 51/3/5 52/6/5 64/6/5 63/3/5
f 46/6/2 44/6/2 56/6/2 58/6/2
f 38/6/2 36/6/2 48/6/2 50/6/2
f 31/5/3 30/9/3 42/9/3 43/5/3
f 33/3/1 35/3/1 47/3/1 45/3/1
f 40/6/2 38/6/2 50/6/2 52/6/2
f 29/3/1 33/3/1 45/3/1 41/3/1
f 35/3/1 37/3/1 49/3/1 47/3/1
f 36/6/2 34/6/2 46/6/2 48/6/2
f 54/4/1 53/3/1 65/3/1 66/4/1
f 56/6/2 55/5/2 67/5/2 68/6/2
f 63/3/5 64/6/5 76/6/5 75/3/5
f 58/6/2 56/6/2 68/6/2 70/6/2
f 60/6/2 58/6/2 70/6/2 72/6/2
f 50/6/2 48/6/2 60/6/2 62/6/2
f 43/5/3 42/9/3 54/9/3 55/5/3
f 45/3/1 47/3/1 59/3/1 57/3/1
f 52/6/2 50/6/2 62/6/2 64/6/2
f 41/3/1 45/3/1 57/3/1 53/3/1
f 47/3/1 49/3/1 61/3/1 59/3/1
f 48/6/2 46/6/2 58/6/2 60/6/2
f 73/3/5 74/6/5 86/6/5 85/3/5
f 68/6/2 67/5/2 79/5/2 80/6/2
f 70/6/2 68/6/2 80/6/2 82/6/2
f 72/6/2 70/6/2 82/6/2 84/6/2
f 74/6/4 73/3/4 75/3/4 76/6/4
f 61/3/1 63/3/1 75/3/1 73/3/1
f 62/6/2 60/6/2 72/6/2 74/6/2
f 55/5/3 54/9/3 66/9/3 67/5/3
f 57/3/1 59/3/1 71/3/1 69/3/1
f 64/6/2 62/6/2 74/6/2 76/6/2
f 53/3/1 57/3/1 69/3/1 65/3/1
f 59/3/1 61/3/1 73/3/1 71/3/1
f 78/4/4 77/3/4 80/6/4 79/5/4
f 82/6/4 81/3/4 83/3/4 84/6/4
f 80/6/4 77/3/4 81/3/4 82/6/4
f 84/6/4 83/3/4 85/3/4 86/6/4
f 66/4/1 65/3/1 77/3/1 78/4/1
f 74/6/2 72/6/2 84/6/2 86/6/2
f 67/5/3 66/9/3 78/9/3 79/5/3
f 69/3/1 71/3/1 83/3/1 81/3/1
f 65/3/1 69/3/1 81/3/1 77/3/1
f 71/3/1 73/3/1 85/3/1 83/3/1
f 116/13/6 180/7/6 184/7/6 181/13/6
f 25/12/1 116/11/1 181/11/1 182/12/1
f 28/3/4 25/2/4 182/2/4 183/3/4
f 183/4/5 182/3/5 181/6/5 184/5/5
f 180/8/2 28/5/2 183/5/2 184/8/2
f 115/8/2 24/5/2 28/5/2 180/8/2
f 24/3/4 178/2/4 25/2/4 28/3/4
f 178/12/1 179/11/1 116/11/1 25/12/1
f 21/3/4 18/2/4 178/2/4 24/3/4
f 112/8/2 21/5/2 24/5/2 115/8/2
f 87/13/6 112/7/6 115/7/6 179/13/6
f 179/13/6 115/7/6 180/7/6 116/13/6
f 109/8/2 88/5/2 21/5/2 112/8/2
f 15/12/1 106/11/1 87/11/1 18/12/1
f 1/1/4 92/2/4 5/3/4 4/4/4
f 94/1/1 95/4/1 96/3/1 177/2/1
f 107/3/1 127/3/1 129/3/1 110/3/1
f 98/5/2 97/8/2 93/7/2 99/6/2
f 106/13/6 109/7/6 112/7/6 87/13/6
f 95/9/3 94/10/3 97/8/3 98/5/3
f 96/3/1 101/3/1 100/2/1 177/2/1
f 103/3/1 125/3/1 127/3/1 107/3/1
f 18/12/1 87/11/1 179/11/1 178/12/1
f 98/5/3 121/5/3 120/9/3 95/9/3
f 93/7/2 90/7/2 102/6/2 99/6/2
f 105/7/2 109/7/2 108/6/2 104/6/2
f 90/7/2 105/7/2 104/6/2 102/6/2
f 101/3/1 103/3/1 89/2/1 100/2/1
f 105/8/2 14/5/2 88/5/2 109/8/2
f 11/12/1 89/11/1 106/11/1 15/12/1
f 103/3/1 107/3/1 106/2/1 89/2/1
f 14/3/4 11/2/4 15/2/4 88/3/4
f 101/3/1 123/3/1 125/3/1 103/3/1
f 112/7/2 115/7/2 114/6/2 111/6/2
f 96/3/1 119/3/1 123/3/1 101/3/1
f 109/7/2 112/7/2 111/6/2 108/6/2
f 107/3/1 110/3/1 87/2/1 106/2/1
f 115/7/2 180/7/2 118/6/2 114/6/2
f 110/3/1 113/3/1 179/2/1 87/2/1
f 88/3/4 15/2/4 18/2/4 21/3/4
f 111/6/6 114/6/6 113/3/6 110/3/6
f 118/6/5 180/7/5 116/12/5 117/11/5
f 113/3/1 117/3/1 116/2/1 179/2/1
f 90/8/2 91/5/2 14/5/2 105/8/2
f 114/6/6 118/6/6 117/3/6 113/3/6
f 127/3/1 139/3/1 141/3/1 129/3/1
f 120/4/1 132/4/1 131/3/1 119/3/1
f 122/6/2 134/6/2 133/5/2 121/5/2
f 129/3/5 141/3/5 142/6/5 130/6/5
f 124/6/2 136/6/2 134/6/2 122/6/2
f 104/6/2 126/6/2 124/6/2 102/6/2
f 108/6/2 128/6/2 126/6/2 104/6/2
f 102/6/2 124/6/2 122/6/2 99/6/2
f 111/6/2 130/6/2 128/6/2 108/6/2
f 99/6/2 122/6/2 121/5/2 98/5/2
f 110/3/5 129/3/5 130/6/5 111/6/5
f 95/4/1 120/4/1 119/3/1 96/3/1
f 139/3/1 151/3/1 153/3/1 141/3/1
f 132/4/1 144/4/1 143/3/1 131/3/1
f 134/6/2 146/6/2 145/5/2 133/5/2
f 141/3/5 153/3/5 154/6/5 142/6/5
f 136/6/2 148/6/2 146/6/2 134/6/2
f 128/6/2 140/6/2 138/6/2 126/6/2
f 121/5/3 133/5/3 132/9/3 120/9/3
f 123/3/1 135/3/1 137/3/1 125/3/1
f 130/6/2 142/6/2 140/6/2 128/6/2
f 119/3/1 131/3/1 135/3/1 123/3/1
f 125/3/1 137/3/1 139/3/1 127/3/1
f 126/6/2 138/6/2 136/6/2 124/6/2
f 144/4/1 156/4/1 155/3/1 143/3/1
f 146/6/2 158/6/2 157/5/2 145/5/2
f 153/3/5 165/3/5 166/6/5 154/6/5
f 148/6/2 160/6/2 158/6/2 146/6/2
f 150/6/2 162/6/2 160/6/2 148/6/2
f 140/6/2 152/6/2 150/6/2 138/6/2
f 133/5/3 145/5/3 144/9/3 132/9/3
f 135/3/1 147/3/1 149/3/1 137/3/1
f 142/6/2 154/6/2 152/6/2 140/6/2
f 131/3/1 143/3/1 147/3/1 135/3/1
f 137/3/1 149/3/1 151/3/1 139/3/1
f 138/6/2 150/6/2 148/6/2 136/6/2
f 163/3/5 175/3/5 176/6/5 164/6/5
f 158/6/2 170/6/2 169/5/2 157/5/2
f 160/6/2 172/6/2 170/6/2 158/6/2
f 162/6/2 174/6/2 172/6/2 160/6/2
f 164/6/6 166/6/6 165/3/6 163/3/6
f 151/3/1 163/3/1 165/3/1 153/3/1
f 152/6/2 164/6/2 162/6/2 150/6/2
f 145/5/3 157/5/3 156/9/3 144/9/3
f 147/3/1 159/3/1 161/3/1 149/3/1
f 154/6/2 166/6/2 164/6/2 152/6/2
f 143/3/1 155/3/1 159/3/1 147/3/1
f 149/3/1 161/3/1 163/3/1 151/3/1
f 168/4/6 169/5/6 170/6/6 167/3/6
f 172/6/6 174/6/6 173/3/6 171/3/6
f 170/6/6 172/6/6 171/3/6 167/3/6
f 174/6/6 176/6/6 175/3/6 173/3/6
f 156/4/1 168/4/1 167/3/1 155/3/1
f 164/6/2 176/6/2 174/6/2 162/6/2
f 157/5/3 169/5/3 168/9/3 156/9/3
f 159/3/1 171/3/1 173/3/1 161/3/1
f 155/3/1 167/3/1 171/3/1 159/3/1
f 161/3/1 173/3/1 175/3/1 163/3/1
f 91/3/4 8/2/4 11/2/4 14/3/4
f 8/12/1 100/11/1 89/11/1 11/12/1
f 89/13/6 105/7/6 109/7/6 106/13/6
f 5/3/4 92/2/4 8/2/4 91/3/4
f 93/8/2 5/5/2 91/5/2 90/8/2
f 177/13/6 93/7/6 90/7/6 100/13/6
f 100/13/6 90/7/6 105/7/6 89/13/6
f 92/12/1 177/11/1 100/11/1 8/12/1
f 1/5/3 4/6/3 97/7/3 94/8/3
f 97/8/6 93/7/6 177/13/6 94/14/6
f 4/9/2 5/5/2 93/8/2 97/10/2
f 94/6/1 177/11/1 92/12/1 1/7/1
